<svg version="1.1" xmlns="http://www.w3.org/2000/svg" xmlns:xlink="http://www.w3.org/1999/xlink" width="181.41016" height="93.43013" viewBox="0,0,181.41016,93.43013"><defs><linearGradient x1="245.41017" y1="142.43012" x2="245.41017" y2="227.43012" gradientUnits="userSpaceOnUse" id="color-1"><stop offset="0" stop-color="#b6b6b6"/><stop offset="1" stop-color="#734343"/></linearGradient><linearGradient x1="236.00001" y1="133.99999" x2="236.00001" y2="218.99999" gradientUnits="userSpaceOnUse" id="color-2"><stop offset="0" stop-color="#f9fffa"/><stop offset="1" stop-color="#ff9191"/></linearGradient></defs><g transform="translate(-150.00001,-133.99999)"><g data-paper-data="{&quot;isPaintingLayer&quot;:true}" fill-rule="nonzero" stroke="none" stroke-linecap="butt" stroke-linejoin="miter" stroke-miterlimit="10" stroke-dasharray="" stroke-dashoffset="0" style="mix-blend-mode: normal"><path d="M163.07683,224.43013c0,0 -3.66666,-2.82562 -3.66666,-11.20834c0,-17.58091 0,-46.40942 0,-56.33333c0,-6.63503 7.33334,-11.45834 7.33334,-11.45834c0,0 2.10778,-3 11.33333,-3c20.62473,0 102.3688,0 137.33333,0c9.86008,0 12.66667,3.66666 12.66667,3.66666c0,0 3.33333,4.3662 3.33333,11.125c0,9.95251 0,38.52455 0,56c0,8.37999 -3,10.875 -3,10.875c0,0 -4.54702,3.33334 -12.33333,3.33334c-19.64183,0 -105.85615,0 -141.33333,0c-9.47687,0 -11.66667,-3 -11.66667,-3z" fill="url(#color-1)" stroke-width="0"/><path d="M153.66667,216c0,0 -3.66666,-2.82562 -3.66666,-11.20834c0,-17.58091 0,-46.40942 0,-56.33333c0,-6.63503 7.33334,-11.45834 7.33334,-11.45834c0,0 2.10778,-3 11.33333,-3c20.62473,0 102.3688,0 137.33333,0c9.86008,0 12.66667,3.66666 12.66667,3.66666c0,0 3.33333,4.3662 3.33333,11.125c0,9.95251 0,38.52455 0,56c0,8.37999 -3,10.875 -3,10.875c0,0 -4.54702,3.33334 -12.33333,3.33334c-19.64183,0 -105.85615,0 -141.33333,0c-9.47687,0 -11.66667,-3 -11.66667,-3z" fill="url(#color-2)" stroke-width="0"/><text transform="translate(160.71108,187.92889) scale(0.66074,0.66074)" font-size="40" xml:space="preserve" fill="#969696" fill-rule="nonzero" stroke="none" stroke-width="1" stroke-linecap="butt" stroke-linejoin="miter" stroke-miterlimit="10" stroke-dasharray="" stroke-dashoffset="0" font-family="Sans Serif" font-weight="normal" text-anchor="start" style="mix-blend-mode: normal"><tspan x="0" dy="0">難しいモード</tspan></text></g></g></svg>