<svg version="1.1" xmlns="http://www.w3.org/2000/svg" xmlns:xlink="http://www.w3.org/1999/xlink" width="365.43817" height="357.75473" viewBox="0,0,365.43817,357.75473"><g transform="translate(-57.28091,-1.12263)"><g data-paper-data="{&quot;isPaintingLayer&quot;:true}" fill-rule="evenodd" stroke="none" stroke-width="1" stroke-linecap="butt" stroke-linejoin="miter" stroke-miterlimit="10" stroke-dasharray="" stroke-dashoffset="0" style="mix-blend-mode: normal"><g><g><path d="M387.06439,353.50289c-78.84427,1.62589 -135.33563,-35.76435 -160.93984,-85.34688c-31.29387,-60.96185 -15.84982,-180.04096 62.18151,-189.79487c0.40624,-6.90885 3.65754,-35.76435 8.12803,-55.27218l25.6042,-10.9731c14.2244,13.81816 19.50783,46.33121 -4.47049,74.37377c9.34721,3.65754 21.53995,20.72701 17.069,40.23484c-8.53427,36.5773 -19.91407,68.68364 -2.8446,107.29307c13.81816,30.88716 53.24006,46.73745 76.81215,73.15413c28.85504,32.10681 9.34721,45.11203 -21.53995,46.33121z" fill="#272525"/><path d="M311.47143,19.02471c8.1285,4.87719 17.47571,16.25652 16.66276,25.6042c-2.03166,2.43836 -21.94619,43.89286 -15.03686,47.55039c17.47571,8.94097 -8.53473,76.81215 1.21918,120.29829c13.41146,60.14891 65.43233,73.56083 86.15934,107.69931c11.3798,18.69535 -9.34721,23.57208 -15.44358,23.57208c-94.69408,-1.62542 -132.49057,-52.83382 -147.93462,-84.53394c-20.3203,-41.45402 -7.72179,-92.66195 9.75391,-132.89727c3.65801,-8.12803 13.00522,-23.16537 19.50783,-29.26174c10.56686,-8.94097 13.00522,-9.75391 26.82338,-10.9731c2.03212,-0.40624 18.28865,-67.05822 18.28865,-67.05822z" fill="#fff63b"/><path d="M295.21491,100.30734c0.81294,-2.8446 4.87719,-1.62542 4.06425,0.81294c-24.79126,82.5018 -14.2244,160.12689 42.26696,200.76797c11.78604,8.53473 35.35765,18.69535 40.64108,20.72749c5.69015,2.03166 1.21918,5.28296 -4.06378,3.65754c-4.87719,-1.62589 -8.94144,-3.2513 -16.25652,-6.50261c-60.96233,-27.63634 -112.17026,-72.74789 -66.65198,-219.46332z" fill="#272525"/></g><g><path d="M302.53046,81.20622c8.12803,6.0959 13.81816,26.82338 2.43836,43.89238c-21.13325,31.70057 -43.07992,58.11726 -41.04778,99.97799c1.62589,33.32552 32.91975,61.36809 45.92497,93.88114c15.44358,39.8286 -7.72227,45.51827 -37.39024,35.76435c-74.37377,-24.38455 -114.20192,-78.03133 -120.70453,-132.89679c-7.72179,-67.46494 49.17581,-173.94505 126.39418,-157.68853c4.47049,-9.75391 32.51305,-64.21315 41.04778,-62.99397c23.57208,3.2513 35.76435,58.52349 -16.66276,80.06345z" fill="#272525"/><path d="M321.22535,15.7734c8.94097,4.06425 15.44358,13.00522 6.50261,29.66846c-5.68967,10.56686 -36.5773,34.13847 -31.29387,39.8286c13.41194,14.2244 -35.35765,69.49658 -41.86026,113.38896c-8.53473,60.96185 35.35765,90.63031 42.6732,129.23926c4.06425,21.13373 -17.06947,19.10159 -22.75913,17.06947c-88.19147,-32.51305 -105.66765,-93.06867 -108.91896,-128.02008c-4.06378,-45.92451 25.6042,-89.41065 56.49184,-121.92371c6.0959,-6.50261 20.3203,-17.88241 28.85504,-21.13373c13.00522,-5.28343 12.59898,-13.41146 26.01044,-9.75391c2.03212,0.81294 44.29909,-48.36335 44.29909,-48.36335z" fill="#fff63b"/><path d="M276.92625,87.30211c2.03212,-2.43836 5.28343,0 3.65801,2.03212c-52.83382,69.49658 -70.30954,145.49625 -32.10681,202.80009c8.12803,12.19274 26.41668,29.26174 30.88716,32.51305c4.47095,3.65801 -2.43836,8.94144 -6.50261,5.69015c-4.06378,-3.2513 -10.16015,-7.72179 -15.44358,-13.00522c-47.55039,-46.73745 -75.59297,-107.29307 19.50783,-230.03019z" fill="#272525"/></g><g><path d="M273.67494,70.63936c2.84507,9.75391 -2.8446,28.4488 -19.91407,37.79648c-34.13895,19.10159 -61.36857,34.95141 -80.06345,73.15413c-14.63112,30.48139 -6.09637,66.24576 -10.56686,100.79046c-5.68967,42.26696 -39.4219,32.10681 -60.96185,10.16062c-54.053,-54.86596 -52.42712,-115.42157 -30.88763,-166.6295c26.41716,-62.99397 128.83302,-131.67761 188.98241,-82.5018c8.53473,-6.50261 59.74267,-42.26696 67.05822,-37.39024c19.10112,13.41194 1.21918,67.87116 -53.64676,64.61987z" fill="#272525"/><path d="M321.63157,20.24437c2.03212,8.94097 -0.81246,23.16537 -8.94097,29.26174c-7.31555,5.28296 -32.10634,15.44358 -46.33121,16.66276c4.87719,18.69489 -65.83857,49.98875 -93.06819,85.75312c-37.39024,49.58253 -13.41194,95.91374 -26.01044,133.30351c-6.90933,20.32077 -24.38502,9.34768 -28.44928,4.47049c-61.77479,-68.2774 -47.55039,-130.0522 -33.32552,-162.15855c18.69489,-42.26696 66.65152,-67.46494 109.32472,-82.09558c8.53473,-2.84507 26.82338,-6.50261 35.76435,-5.68967c14.22488,1.21918 16.66323,2.8446 26.41716,11.78557c2.03212,1.62589 62.99397,-39.01566 64.61939,-31.2934z" fill="#fff63b"/><path d="M247.25827,63.32381c2.8446,-1.21918 4.47049,2.43883 2.43836,3.2513c-80.46968,37.39024 -133.70975,96.72668 -127.61384,164.59738c1.21918,14.2244 8.94144,37.39024 11.3798,42.67368c2.43836,5.28296 -3.65801,4.47049 -5.28343,-0.40672c-2.03212,-4.87672 -3.65754,-8.53473 -5.68967,-15.84982c-19.50783,-62.18151 -19.10159,-128.83302 124.76878,-194.26584z" fill="#272525"/></g></g></g></g></svg>