<svg version="1.1" xmlns="http://www.w3.org/2000/svg" xmlns:xlink="http://www.w3.org/1999/xlink" width="180" height="92" viewBox="0,0,180,92"><defs><linearGradient x1="244" y1="141" x2="244" y2="226" gradientUnits="userSpaceOnUse" id="color-1"><stop offset="0" stop-color="#969696"/><stop offset="1" stop-color="#035016"/></linearGradient><linearGradient x1="236" y1="134" x2="236" y2="219" gradientUnits="userSpaceOnUse" id="color-2"><stop offset="0" stop-color="#ffffff"/><stop offset="1" stop-color="#00f743"/></linearGradient></defs><g transform="translate(-150,-134)"><g data-paper-data="{&quot;isPaintingLayer&quot;:true}" fill-rule="nonzero" stroke="none" stroke-linecap="butt" stroke-linejoin="miter" stroke-miterlimit="10" stroke-dasharray="" stroke-dashoffset="0" style="mix-blend-mode: normal"><g stroke-width="0"><path d="M161.66667,223c0,0 -3.66667,-2.82562 -3.66667,-11.20833c0,-17.5809 0,-46.40943 0,-56.33333c0,-6.63503 7.33334,-11.45834 7.33334,-11.45834c0,0 2.10778,-3 11.33333,-3c20.62473,0 102.3688,0 137.33333,0c9.86008,0 12.66667,3.66666 12.66667,3.66666c0,0 3.33333,4.3662 3.33333,11.125c0,9.9525 0,38.52455 0,56c0,8.37999 -3,10.875 -3,10.875c0,0 -4.54702,3.33333 -12.33333,3.33333c-19.64183,0 -105.85615,0 -141.33333,0c-9.47687,0 -11.66667,-3 -11.66667,-3z" fill="url(#color-1)"/><path d="M153.66667,216c0,0 -3.66666,-2.82562 -3.66666,-11.20834c0,-17.58091 0,-46.40942 0,-56.33333c0,-6.63503 7.33334,-11.45834 7.33334,-11.45834c0,0 2.10778,-3 11.33333,-3c20.62473,0 102.3688,0 137.33333,0c9.86008,0 12.66667,3.66666 12.66667,3.66666c0,0 3.33333,4.3662 3.33333,11.125c0,9.95251 0,38.52455 0,56c0,8.37999 -3,10.875 -3,10.875c0,0 -4.54702,3.33334 -12.33333,3.33334c-19.64183,0 -105.85615,0 -141.33333,0c-9.47687,0 -11.66667,-3 -11.66667,-3z" fill="url(#color-2)"/></g><text transform="translate(157.46394,189.5226) scale(0.82536,0.82536)" font-size="40" xml:space="preserve" fill="#969696" fill-rule="nonzero" stroke="none" stroke-width="1" stroke-linecap="butt" stroke-linejoin="miter" stroke-miterlimit="10" stroke-dasharray="" stroke-dashoffset="0" font-family="Sans Serif" font-weight="normal" text-anchor="start" style="mix-blend-mode: normal"><tspan x="0" dy="0">簡単モード</tspan></text></g></g></svg>