<svg version="1.1" xmlns="http://www.w3.org/2000/svg" xmlns:xlink="http://www.w3.org/1999/xlink" width="102.25" height="35.27925" viewBox="0,0,102.25,35.27925"><g transform="translate(-188.875,-162.36039)"><g data-paper-data="{&quot;isPaintingLayer&quot;:true}" fill-rule="nonzero" stroke="none" stroke-linecap="butt" stroke-linejoin="miter" stroke-miterlimit="10" stroke-dasharray="" stroke-dashoffset="0" style="mix-blend-mode: normal"><path d="M190.125,195.88964c0,0 -1.25,-2.49801 -1.25,-5.9365c0,-4.12954 0,-14.46696 0,-21.25c0,-3.70024 3,-4.84275 3,-4.84275c0,0 0.3322,-1.5 5.75,-1.5c20.75387,0 72.11203,0 84,0c4.79784,0 7,1.25 7,1.25c0,0 2.5,1.58875 2.5,4.09275c0,3.74109 0,14.68558 0,22.25c0,4.42036 -2,5.1865 -2,5.1865c0,0 -2.007,2.5 -6.25,2.5c-11.17556,0 -62.14366,0 -84,0c-6.15397,0 -8.75,-1.75 -8.75,-1.75z" fill="#ffffff" stroke-width="0"/><text transform="translate(191.67214,177.49828) scale(0.21683,0.21683)" font-size="40" xml:space="preserve" fill="#cccccc" fill-rule="nonzero" stroke="none" stroke-width="1" stroke-linecap="butt" stroke-linejoin="miter" stroke-miterlimit="10" stroke-dasharray="" stroke-dashoffset="0" font-family="Sans Serif" font-weight="normal" text-anchor="start" style="mix-blend-mode: normal"><tspan x="0" dy="0">40秒以内に</tspan><tspan x="0" dy="46.150000000000006px">20点以上取ったらクリア</tspan></text></g></g></svg>