<svg version="1.1" xmlns="http://www.w3.org/2000/svg" xmlns:xlink="http://www.w3.org/1999/xlink" width="261.21151" height="163.99999" viewBox="0,0,261.21151,163.99999"><g transform="translate(-106.99906,-85.3125)"><g data-paper-data="{&quot;isPaintingLayer&quot;:true}" fill="#00f70f" fill-rule="nonzero" stroke="none" stroke-width="0.5" stroke-linecap="butt" stroke-linejoin="miter" stroke-miterlimit="10" stroke-dasharray="" stroke-dashoffset="0" style="mix-blend-mode: normal"><g><path d="M234,211.8125c0,-12.5 12.5,-12.5 12.5,-12.5l7.43357,0.01284c4.02219,-0.36361 8.32953,0.37782 12.05897,-1.17186c4.08269,-1.69647 7.16624,-5.18049 10.70638,-7.82884c4.9583,-2.77084 9.777,-5.79153 14.78597,-8.46971c1.52499,-0.81538 3.23897,-1.26776 4.70624,-2.18295c1.36276,-0.85001 2.52538,-2.1691 3.85371,-3.07176c-0.07913,-0.58805 -0.18004,-1.17034 -0.36825,-1.731c-0.96876,-2.88597 -2.40274,-5.61803 -3.17809,-8.56186c-0.29283,-1.11182 -0.28397,-2.35052 -0.876,-3.33611c-3.7574,-6.25516 -10.80906,-7.22902 -17.07535,-9.30019c0,0 -11.85854,-3.95285 -7.90569,-15.81139c3.95285,-11.85854 15.81139,-7.90569 15.81139,-7.90569c3.6997,1.24736 7.73981,1.78604 11.27036,3.50213c8.13359,3.95348 14.7817,9.35066 19.65429,17.19768c2.18601,3.52045 2.37615,7.94743 3.84606,11.82191c2.57033,6.775 7.32288,16.70478 3.82493,24.12037c-1.773,3.75873 -5.19315,6.53021 -8.23962,9.35698c-1.09276,1.01396 -2.75965,1.1731 -4,2c-0.78446,0.52298 -1.20083,1.49979 -2,2c-6.47384,4.05203 -13.82333,7.65847 -20.5078,11.34734c-4.25009,3.19603 -10.15658,8.14166 -15.29362,10.17116c-5.0335,1.98859 -15.46475,2.41938 -19.94103,2.82814l-8.56643,0.01284c0,0 -12.5,0 -12.5,-12.5z"/><path d="M245.33883,96.97367c8.83883,8.83883 0,17.67767 0,17.67767l-4.2672,3.7943c-3.70979,1.3503 -7.43119,2.66914 -11.12938,4.05089c-1.60628,0.60015 -3.37606,0.91369 -4.78273,1.89429c-2.73374,1.90571 -4.73378,4.74148 -7.46834,6.64601c-3.35214,2.33467 -7.00945,4.21939 -10.68673,5.99846c-3.19588,1.54616 -11.66895,3.47037 -15.4281,7.37197c-3.52483,3.65839 -2.59989,5.44788 -2.57634,10.40524c0.0314,6.61264 -1.28442,13.74352 4.33883,18.16117c0,0 8.83883,8.83883 0,17.67767c-8.83883,8.83883 -17.67767,0 -17.67767,0c-1.93143,-2.08907 -4.18106,-3.92367 -5.7943,-6.2672c-1.04411,-1.51676 -1.36824,-3.4192 -2.05089,-5.12938c-1.18788,-2.97592 -2.79201,-5.81826 -3.5607,-8.92893c-1.12917,-4.56946 -0.27363,-10.76063 -0.25528,-15.51332c0.02078,-5.38298 -0.34843,-11.74197 1.95151,-16.78354c1.81819,-3.98557 4.55456,-7.54345 7.47215,-10.81122c6.63967,-7.43659 13.36592,-8.27968 22.5719,-12.62803c2.51262,-1.18681 5.0546,-2.38283 7.31327,-4.00154c3.05177,-2.1871 5.37743,-5.31744 8.53166,-7.35399c5.09055,-3.28674 10.44145,-4.45299 16.08789,-6.05482l-0.2672,-0.2057c0,0 8.83883,-8.83883 17.67767,0z"/><path d="M294,236.8125c0,-9.28337 6.89448,-11.67226 10.44279,-12.287c8.74654,-3.73616 18.14003,-7.75978 26.19874,-12.43383c0.79633,-0.46187 1.04971,-1.51441 1.52025,-2.30564c3.29622,-5.54268 3.30963,-5.61233 5.75809,-11.67999c1.53274,-3.79837 3.24896,-7.53531 4.48287,-11.441c3.64049,-11.52325 -3.27438,-22.43899 -6.76129,-32.8997c0,0 -3.95285,-11.85854 7.90569,-15.81139c11.85854,-3.95285 15.81139,7.90569 15.81139,7.90569c1.74389,5.23167 4.81348,10.18392 6.15403,15.49624c2.51839,9.97983 4.02159,21.44816 1.08468,31.60406c-1.44172,4.98549 -3.60119,9.73584 -5.51713,14.559c-2.22802,5.60881 -4.75669,11.35288 -8.24191,16.32001c-1.92593,2.74484 -3.72392,5.78418 -6.47975,7.69436c-9.56977,6.6332 -22.93526,12.04574 -33.93448,16.76849l-5.92399,1.01069c0,0 -12.5,0 -12.5,-12.5z"/><path d="M211,97.8125c0,12.5 -12.5,12.5 -12.5,12.5h-1c-1.00456,-0.16251 -1.99369,0.40965 -2.98685,0.6314c-4.67339,1.04346 -9.43116,1.66555 -14.13774,2.54729c-8.06875,1.51161 -16.1537,2.93908 -24.20657,4.53308c-4.16935,0.82529 -8.11757,1.59853 -11.66098,4.13907c-2.43976,1.74926 -4.62068,3.85131 -6.71156,6.00552c-1.16225,1.19746 -2.3713,2.46057 -3.00428,4.00462c-3.40622,8.30897 -2.79203,16.93328 -2.79203,25.63902c0,0 0,12.5 -12.5,12.5c-12.5,0 -12.5,-12.5 -12.5,-12.5c0,-12.41943 -0.19817,-24.68037 5.20797,-36.36098c1.70814,-3.69065 4.25096,-6.99456 6.99572,-9.99538c3.39197,-3.7084 7.17084,-7.11299 11.28844,-9.99448c12.43591,-8.70263 31.43532,-9.94501 45.27606,-12.54228c7.16288,-1.34414 14.48029,-3.3729 21.7318,-3.60688h1c0,0 12.5,0 12.5,12.5z"/></g></g></g></svg>